<?xml version="1.0" standalone="no"?>
<!DOCTYPE svg PUBLIC "-//W3C//DTD SVG 20010904//EN"
 "http://www.w3.org/TR/2001/REC-SVG-20010904/DTD/svg10.dtd">
<svg version="1.0" xmlns="http://www.w3.org/2000/svg"
 width="512.000000pt" height="512.000000pt" viewBox="0 0 512.000000 512.000000"
 preserveAspectRatio="xMidYMid meet">

<g transform="translate(0.000000,512.000000) scale(0.100000,-0.100000)"
fill="#000000" stroke="none">
<path d="M1135 4143 c-258 -55 -504 -234 -625 -454 l-35 -64 -80 -5 c-91 -6
-118 -18 -141 -62 -36 -69 10 -137 96 -146 47 -4 51 -7 46 -26 -14 -52 -18
-208 -7 -289 53 -393 336 -707 727 -804 107 -26 324 -24 437 5 268 67 498 252
619 497 70 140 98 261 98 421 0 119 -17 220 -55 319 -14 39 -27 76 -28 84 -3
22 97 67 201 92 164 38 359 16 505 -57 26 -14 47 -26 47 -28 0 -2 -11 -30 -26
-61 -94 -213 -91 -498 6 -727 91 -213 285 -407 500 -499 227 -96 500 -98 731
-4 276 112 501 381 565 678 18 80 23 253 11 335 l-8 52 45 0 c84 0 138 78 102
148 -22 42 -37 48 -138 57 -84 6 -87 7 -99 37 -40 96 -177 257 -285 334 -92
66 -212 122 -321 150 -175 46 -397 34 -558 -28 -134 -52 -228 -112 -336 -216
l-77 -73 -51 26 c-260 131 -588 137 -848 15 l-85 -40 -62 64 c-138 143 -308
234 -504 272 -94 18 -277 17 -367 -3z m339 -268 c38 -8 107 -33 154 -56 70
-34 103 -58 172 -128 147 -147 207 -301 198 -510 -8 -179 -66 -307 -198 -442
-176 -178 -436 -241 -676 -164 -381 120 -577 552 -414 913 134 294 449 454
764 387z m2496 -16 c292 -81 493 -346 493 -649 0 -183 -66 -343 -193 -470
-120 -120 -245 -181 -403 -199 -402 -46 -749 264 -749 669 0 310 212 582 508
654 92 22 255 20 344 -5z"/>
<path d="M2160 1606 c-41 -12 -136 -53 -210 -89 -74 -36 -175 -78 -224 -92
-264 -75 -542 -48 -824 81 l-72 33 32 -47 c48 -72 234 -252 316 -306 164 -108
391 -191 595 -216 120 -15 380 -8 453 13 89 25 195 88 267 157 l67 66 68 -66
c71 -69 177 -132 266 -157 73 -21 333 -28 453 -13 204 25 430 107 595 215 81
54 267 234 316 307 l32 47 -73 -34 c-277 -128 -560 -155 -823 -80 -49 14 -159
59 -244 100 -194 92 -253 108 -385 103 -84 -3 -108 -8 -152 -31 l-53 -27 -52
27 c-47 24 -66 27 -163 30 -93 3 -122 -1 -185 -21z"/>
</g>
</svg>
